<svg id="Layer_1" data-name="Layer 1" xmlns="http://www.w3.org/2000/svg" viewBox="0 0 1012.83 172.8"><defs><style>.cls-1{fill:#00e6ff;}</style></defs><path class="cls-1" d="M105.07,20.94l-4.55,26.31H73.74L48.87,188.34H22.56L47.43,47.25H20.65l4.54-26.31Z" transform="translate(-18.87 -19.44)"/><path class="cls-1" d="M50.13,189.84H20.77L45.65,48.75H18.87l5.06-29.31h82.92l-5.06,29.31H75Zm-25.78-3H47.61L72.48,45.75H99.26l4-23.31H26.46l-4,23.31H49.22Z" transform="translate(-18.87 -19.44)"/><path class="cls-1" d="M160.24,47.45h23.61l-25,141.7H135.22L146,128.3H125.21L114.4,189.15H90.79l25-141.7h23.62l-10,57.24h20.82Zm1.2,1.6-10,57.24h-24l10-57.24H117L92.79,187.54H113.2L124,126.7h24l-10.81,60.84h20.41L181.85,49.05Z" transform="translate(-18.87 -19.44)"/><path class="cls-1" d="M160.09,190.65H133.43l10.81-60.85H126.47l-10.81,60.85H89L114.55,46h26.66l-10,57.24H149L159,46h26.66ZM139,186h17.36l23.7-135.49H162.7l-10,57.24H125.63l10-57.24H118.27L94.57,186H112l10.8-60.84h27.07Z" transform="translate(-18.87 -19.44)"/><path class="cls-1" d="M188.85,182.34q-6.4-7.6-6.4-19a74.41,74.41,0,0,1,.8-8l19-107.87h23.62l-19,108.27c-.4,2.8-.6,4.34-.6,4.61,0,2.13.46,3.67,1.4,4.6q2,2.2,7.4,2.2a14.2,14.2,0,0,0,8.21-2.2q3.19-2.4,4.4-9.61l19-107.87h23.62l-19,108.27q-2.81,16.62-15,26.62-10.41,8.4-25,8.41Q196.26,190.75,188.85,182.34Zm46.44-1.2q11.6-9.81,14.41-25.82L268.31,49.05H247.89L229.28,155.72q-1.6,7.82-5.2,10.41c-2.14,1.74-5.14,2.6-9,2.6-4.14,0-7-.86-8.6-2.6q-1.82-1.8-1.81-6a21.55,21.55,0,0,1,.6-4.8L223.88,49.05H203.46L184.85,155.72a65.86,65.86,0,0,0-.8,8q0,10.8,6,17.41,7,8,21.22,8A38.31,38.31,0,0,0,235.29,181.14Z" transform="translate(-18.87 -19.44)"/><path class="cls-1" d="M211.27,192.25c-10.41,0-18.33-3-23.54-8.92l0,0c-4.49-5.32-6.76-12.05-6.76-20a74.78,74.78,0,0,1,.81-8.21L201,46h26.67L208.34,156c-.5,3.52-.57,4.23-.58,4.37a5.11,5.11,0,0,0,1,3.52c1.06,1.17,3.24,1.76,6.34,1.76a12.78,12.78,0,0,0,7.36-1.94c1.75-1.32,3-4.23,3.77-8.61L245.43,46H272.1L252.77,156c-1.92,11.38-7.15,20.64-15.53,27.52C230.05,189.31,221.31,192.25,211.27,192.25Zm-6.55-141.7L186.33,156a62.58,62.58,0,0,0-.78,7.75c0,6.78,1.89,12.3,5.61,16.4,4.37,5,11.13,7.52,20.11,7.52A37,37,0,0,0,234.34,180c7.41-6.27,12.08-14.65,13.88-24.91l18.3-104.51H249.16L230.76,156c-1.17,5.69-3.06,9.39-5.8,11.37-2.33,1.89-5.68,2.88-9.89,2.88-4.62,0-7.79-1-9.71-3.08-1.44-1.45-2.2-3.82-2.2-7a23.35,23.35,0,0,1,.64-5.14L222.09,50.55Z" transform="translate(-18.87 -19.44)"/><path class="cls-1" d="M358,47.45l-25,141.7h-14L298.73,120.7l-12.21,68.45H262.9l25-141.7h14l20.42,68.24,12-68.24Zm-2,1.6H335.55l-12.8,73.45-22-73.45H289.12L264.9,187.54h20.42l13-73.65,21.81,73.65h11.61Z" transform="translate(-18.87 -19.44)"/><path class="cls-1" d="M334.21,190.65H317.82l-18.73-63.43-11.31,63.43H261.12L286.66,46h16.39L322,109.19,333.09,46h26.67ZM321.26,186h9.23L354.18,50.55H336.82L323.13,129,299.61,50.55h-9.23L266.69,186h17.37L298,107.36Z" transform="translate(-18.87 -19.44)"/><path class="cls-1" d="M351.56,189.15l25-141.7H410.4q14.82,0,22.42,8.6,6.4,7.61,6.4,18.82a63.57,63.57,0,0,1-.8,8l-12.61,72a48.32,48.32,0,0,1-5.2,14.81,35.76,35.76,0,0,1-10,11.41q-10.41,8-24.81,8Zm58.24-9.21a37.78,37.78,0,0,0,9.41-11,44.53,44.53,0,0,0,5-14.41l12.61-72.05a51.34,51.34,0,0,0,.6-7.6q0-10.82-5.8-17.62-7.22-8.2-21.22-8.2H377.78L353.56,187.54h32.23A39.62,39.62,0,0,0,409.8,179.94Zm-15-110.48H406.6c4,0,6.81.87,8.41,2.6,1.2,1.34,1.8,3.47,1.8,6.41,0,.8-.14,2.27-.4,4.4l-12.61,72q-1.6,7.41-4.8,9.81c-2,1.6-5.14,2.4-9.41,2.4H377.38Zm-5.2,96.07q5.6,0,8.41-2,3-2.4,4.2-9l12.61-72.05a25.91,25.91,0,0,0,.4-4q0-3.6-1.4-5.21c-1.34-1.46-3.74-2.2-7.21-2.2H396l-16.61,94.47Z" transform="translate(-18.87 -19.44)"/><path class="cls-1" d="M385.79,190.65h-36L375.32,46H410.4c10.28,0,18.2,3.06,23.54,9.11,4.51,5.35,6.78,12,6.78,19.81a65.35,65.35,0,0,1-.81,8.21l-12.62,72.1a50.28,50.28,0,0,1-5.37,15.29,37.38,37.38,0,0,1-10.42,11.87C404.34,187.85,395.69,190.65,385.79,190.65ZM355.35,186h30.44a38.32,38.32,0,0,0,23.11-7.3,36.53,36.53,0,0,0,9-10.56,43.33,43.33,0,0,0,4.83-13.93l12.6-72a48.79,48.79,0,0,0,.58-7.34c0-6.81-1.83-12.41-5.44-16.64-4.47-5.09-11.23-7.68-20.08-7.68H379Zm34.24-17.41h-14L393.54,68H406.6c4.42,0,7.62,1,9.51,3.09,1.48,1.65,2.2,4.07,2.2,7.42a45.47,45.47,0,0,1-.41,4.59l-12.62,72.12c-1.17,5.41-2.93,8.9-5.38,10.75C397.64,167.74,394.25,168.63,389.59,168.63Zm-8.42-4.6h8.42c3.4,0,5.93-.58,7.53-1.72,1.64-1.31,2.87-4,3.6-8.06l12.61-72a23.88,23.88,0,0,0,.38-3.74c0-2-.36-3.45-1-4.22-1-1.11-3.07-1.69-6.08-1.69h-9.35Z" transform="translate(-18.87 -19.44)"/><path class="cls-1" d="M517.68,71.06h-36l-5.8,33.63h24.82l-4.21,23.61H471.65L465,165.53h36l-4.21,23.62H437.22l25-141.7h59.64Zm-1.2-1.6,3.4-20.41H463.44L439.22,187.54h56.44l3.41-20.41H463l7.41-40.43h24.81l3.41-20.41H473.85l6.6-36.83Z" transform="translate(-18.87 -19.44)"/><path class="cls-1" d="M498.12,190.65H435.43L461,46h62.69l-4.73,26.61h-36l-5.29,30.63h24.83l-4.74,26.61H472.9L466.83,164h36ZM441,186h53.38l2.91-17.41H461.24l8-43.43H494l2.91-17.41H472.06L479.2,68h36l2.9-17.41H464.7Z" transform="translate(-18.87 -19.44)"/><path class="cls-1" d="M581.52,189.15h-24l-1.4-56.24h-8.6l-10,56.24H513.87l25-141.7h33.82q14.82,0,22.42,8.6,6.4,7.61,6.41,18.82a64.11,64.11,0,0,1-.81,8l-2.6,15q-2.8,17-14.81,26.62a26.81,26.81,0,0,1-3.6,2.4Zm.6-65.85q11.61-9.4,14.41-25.82l2.6-15a51.34,51.34,0,0,0,.6-7.6q0-10.82-5.8-17.62-7.2-8.2-21.22-8.2H540.09L515.88,187.54h20.41l10-56.24h11.41l1.4,56.24h20.81l-1.8-61.44C579.19,125.44,580.52,124.5,582.12,123.3Zm-11.21-15q-3.2,2.59-9,2.6H549.7l7.4-41.43h11.81c4,0,6.81.87,8.41,2.6,1.2,1.34,1.8,3.47,1.8,6.41,0,.8-.14,2.27-.4,4.4l-2.6,15Q574.92,105.29,570.91,108.29Zm6.21-25.82a25.91,25.91,0,0,0,.4-4q0-3.6-1.4-5.21c-1.34-1.46-3.74-2.2-7.21-2.2H558.3l-6.6,38.23h10.21q5.21,0,8.2-2.2c2.14-1.6,3.6-4.81,4.41-9.61Z" transform="translate(-18.87 -19.44)"/><path class="cls-1" d="M583.07,190.65H556l-1.4-56.24h-5.89l-10,56.24H512.09L537.63,46h35.08c10.28,0,18.2,3.06,23.54,9.11,4.51,5.36,6.79,12,6.79,19.81a66.07,66.07,0,0,1-.82,8.21l-2.61,15.06c-1.92,11.65-7.09,20.92-15.35,27.53a29.14,29.14,0,0,1-3,2.08ZM560.57,186h17.81l-1.79-60.75.73-.46c1-.63,2.32-1.54,3.88-2.71,7.4-6,12.06-14.38,13.85-24.89l2.61-15a50.18,50.18,0,0,0,.57-7.34c0-6.81-1.83-12.41-5.44-16.64-4.47-5.09-11.23-7.68-20.08-7.68H541.35L517.66,186H535l10-56.24h14.13Zm1.34-73.65h-14L555.85,68h13.06c4.42,0,7.62,1,9.51,3.09,1.48,1.65,2.2,4.07,2.2,7.42a45.71,45.71,0,0,1-.41,4.59l-2.62,15.08c-.85,5.28-2.79,9.09-5.75,11.33C569.44,111.41,566.1,112.39,561.91,112.39Zm-8.43-4.6h8.43c3.13,0,5.59-.64,7.32-1.91s3.07-4.26,3.81-8.65l2.6-15a24.22,24.22,0,0,0,.38-3.75c0-2-.36-3.45-1-4.22-1-1.11-3.07-1.69-6.08-1.69h-9.34Z" transform="translate(-18.87 -19.44)"/><path class="cls-1" d="M640.59,188.34h-39.7l29.42-167.4h36.11q17.22,0,26.06,9.33a26.77,26.77,0,0,1,6.7,13.39,40.14,40.14,0,0,1,.72,7.89,69,69,0,0,1-.72,9.81L696.31,76.9q-3.1,17-14.11,25.83,8.61,6.94,8.61,21a64.4,64.4,0,0,1-.72,9.08l-2.63,15.31a58.11,58.11,0,0,1-6.22,17.46A38.9,38.9,0,0,1,669.76,179Q657.57,188.35,640.59,188.34ZM631.74,162h13.39q7.41,0,10.53-2.63,4.05-3.1,5.5-11.24l2.63-15.31a40.71,40.71,0,0,0,.47-5.26c0-3-.64-5.26-1.91-6.69Q659.49,118,653,118H639.63Zm12.44-70.31H654q6.93,0,10.28-2.87,4.07-3.58,5.74-12l2.87-15.54a30.56,30.56,0,0,0,.24-4.54q0-5-1.67-6.94c-1.6-1.75-4.78-2.63-9.57-2.63h-9.8Z" transform="translate(-18.87 -19.44)"/><path class="cls-1" d="M640.59,189.84H599.1l.31-1.76L629.05,19.44h37.37c11.85,0,21,3.3,27.15,9.8a28.33,28.33,0,0,1,7.08,14.15,41.27,41.27,0,0,1,.75,8.16,72,72,0,0,1-.73,10l-2.89,15.61c-2,10.92-6.46,19.51-13.28,25.57,5.18,4.89,7.81,12,7.81,21a67.7,67.7,0,0,1-.73,9.3l-2.64,15.34a59.88,59.88,0,0,1-6.39,17.94,40.44,40.44,0,0,1-11.9,13.87C662.32,186.6,652.19,189.84,640.59,189.84Zm-37.91-3h37.91c10.93,0,20.44-3,28.26-9a37.63,37.63,0,0,0,11.07-12.91,56.82,56.82,0,0,0,6.07-17l2.62-15.27a63.5,63.5,0,0,0,.7-8.83c0-8.89-2.71-15.57-8-19.88l-1.45-1.17,1.45-1.17c7-5.64,11.58-14,13.57-24.93l2.88-15.54a69.24,69.24,0,0,0,.69-9.54,38.7,38.7,0,0,0-.69-7.59,25.41,25.41,0,0,0-6.33-12.68c-5.56-5.86-14-8.84-25-8.84H631.57Zm42.45-23.3H630l8.43-47H653c4.7,0,8.19,1.11,10.39,3.31,1.58,1.77,2.35,4.36,2.35,7.75a40.94,40.94,0,0,1-.49,5.47l-2.64,15.35c-1,5.79-3.06,9.88-6.06,12.18C654.25,162.56,650.49,163.54,645.13,163.54Zm-11.6-3h11.6c4.56,0,7.77-.77,9.56-2.28,2.44-1.87,4.1-5.34,5-10.35l2.63-15.3a38.37,38.37,0,0,0,.45-5c0-2.63-.51-4.55-1.53-5.7-1.55-1.55-4.33-2.36-8.21-2.36H640.89ZM654,93.23H642.39l8.42-47.48h11.06c5.27,0,8.77,1,10.68,3.12,1.39,1.6,2.06,4.19,2.06,8a31,31,0,0,1-.26,4.78l-2.87,15.58c-1.18,5.9-3.27,10.2-6.22,12.81C662.74,92.14,659,93.23,654,93.23Zm-8-3h8c4.23,0,7.36-.84,9.31-2.51,2.43-2.14,4.2-5.89,5.24-11.11l2.87-15.52a30,30,0,0,0,.21-4.27c0-3.68-.71-5.27-1.3-6-.87-1-3.06-2.12-8.44-2.12h-8.54Z" transform="translate(-18.87 -19.44)"/><path class="cls-1" d="M759.13,189.15H699.49l25-141.7h23.62L727.31,165.53h36Zm-1.2-1.61,3.4-20.41h-36L746.12,49.05H725.71L701.49,187.54Z" transform="translate(-18.87 -19.44)"/><path class="cls-1" d="M760.39,190.65H697.7L723.25,46h26.66L729.09,164h36ZM703.27,186h53.39l2.9-17.41h-36l.31-1.76,20.5-116.32H727Z" transform="translate(-18.87 -19.44)"/><path class="cls-1" d="M825.57,189.15V166.93H801.75l-8,22.22H769.53l53.24-141.7h23.42l3.4,141.7Zm1.6-1.61H848L844.58,49.05H824l-52,138.49h20.62l8-22.21h26.62Zm-19.61-42.63,19.61-55.63v55.63Zm2.4-1.6h15.61V98.48Z" transform="translate(-18.87 -19.44)"/><path class="cls-1" d="M851.12,190.65h-27V168.43H802.81l-8,22.22H767.37L821.73,46h25.92ZM828.67,186h17.78L843.12,50.55H825L774.1,186h17.39l8-22.21h29.17Zm0-39.63H805.44l23.23-65.9Zm-16.6-4.6h12V107.35Z" transform="translate(-18.87 -19.44)"/><path class="cls-1" d="M928.84,189.15H860.39L917.63,71.26H881.41l4.2-23.81h68.45L897,165.33h36.23Zm-1.2-1.61,3.6-20.61H894.62l57-117.88H886.81l-3.4,20.61H920L862.8,187.54Z" transform="translate(-18.87 -19.44)"/><path class="cls-1" d="M930.09,190.65H858L915.24,72.76H879.62L884.35,46h72.1l-57,117.88h35.64ZM865.19,186h61.19l3.08-17.61H892.23l57-117.88H888.08l-2.9,17.61h37.25Z" transform="translate(-18.87 -19.44)"/><path class="cls-1" d="M1025.71,71.06h-36l-5.8,33.63h24.82l-4.21,23.61H979.68l-6.61,37.23h36l-4.21,23.62H945.25l25-141.7h59.64Zm-1.2-1.6,3.4-20.41H971.47L947.25,187.54h56.44l3.41-20.41h-36l7.41-40.43h24.81l3.41-20.41H981.88l6.6-36.83Z" transform="translate(-18.87 -19.44)"/><path class="cls-1" d="M1006.15,190.65H943.46L969,46h62.69L1027,72.56H991l-5.29,30.63h24.83l-4.74,26.61H980.93L974.86,164h36ZM949,186h53.38l2.91-17.41H969.27l8-43.43H1002l2.91-17.41H980.09L987.23,68h36l2.9-17.41H972.73Z" transform="translate(-18.87 -19.44)"/></svg>